<?xml version="1.0" standalone="no"?>
<!DOCTYPE svg PUBLIC "-//W3C//DTD SVG 20010904//EN"
 "http://www.w3.org/TR/2001/REC-SVG-20010904/DTD/svg10.dtd">
<svg version="1.0" xmlns="http://www.w3.org/2000/svg"
 width="260.000000pt" height="260.000000pt" viewBox="0 0 260.000000 260.000000"
 preserveAspectRatio="xMidYMid meet">
<metadata>
Created by potrace 1.14, written by Peter Selinger 2001-2017
</metadata>
<g transform="translate(0.000000,260.000000) scale(0.100000,-0.100000)"
fill="#000000" stroke="none">
<path d="M971 2583 c8 -9 15 -10 24 -3 9 8 14 7 18 -2 6 -18 -3 -38 -17 -38
-6 0 -19 -9 -28 -19 -14 -17 -14 -20 -2 -25 9 -3 12 -1 9 4 -3 6 -1 10 5 10 6
0 9 4 6 8 -2 4 9 8 25 7 26 0 27 -2 13 -12 -9 -7 -21 -10 -25 -7 -5 3 -9 -2
-9 -10 0 -9 7 -13 18 -11 12 2 18 -3 18 -17 0 -17 -2 -18 -12 -3 -7 9 -15 12
-18 7 -3 -5 1 -15 9 -22 13 -11 13 -14 -2 -27 -17 -13 -16 -14 5 -10 26 6 21
-8 -6 -15 -16 -5 -19 0 -17 38 1 24 -1 41 -3 39 -3 -3 -12 1 -21 8 -14 10 -14
10 -4 -4 10 -12 10 -18 0 -29 -9 -10 -9 -11 1 -6 6 4 12 3 12 -3 0 -5 -8 -12
-17 -14 -15 -4 -15 -5 2 -6 17 -1 18 -3 5 -11 -11 -7 -11 -10 -2 -10 7 0 11
-4 8 -9 -3 -5 11 -7 32 -5 29 2 33 1 19 -7 -9 -6 -14 -15 -11 -21 4 -6 3 -9
-2 -5 -5 3 -14 -6 -21 -19 -8 -17 -8 -26 -1 -31 6 -3 8 -1 5 4 -4 6 5 19 19
28 15 9 24 12 20 7 -3 -6 2 -12 11 -14 15 -3 14 -5 -5 -10 -14 -4 -20 -2 -15
4 3 7 1 8 -5 4 -6 -4 -9 -13 -5 -21 3 -9 -1 -15 -8 -15 -11 0 -11 -3 1 -10 8
-5 24 -7 35 -4 16 5 18 4 8 -7 -7 -7 -13 -18 -13 -24 0 -5 5 -2 11 8 5 9 15
17 21 17 7 0 6 -6 -2 -15 -7 -9 -10 -18 -6 -22 3 -3 6 -1 6 6 0 7 5 9 12 5 7
-5 8 -3 3 6 -5 8 -3 11 6 8 8 -3 13 -12 11 -20 -1 -9 5 -18 13 -22 9 -3 13 -2
10 4 -3 6 -2 10 2 10 13 0 34 -39 24 -45 -5 -3 -11 -2 -14 2 -2 5 -2 2 -1 -4
3 -12 -9 -17 -28 -14 -5 0 -8 -3 -8 -8 0 -15 39 -9 45 7 3 7 10 10 16 6 8 -4
9 -3 5 4 -4 7 -2 12 4 12 7 0 10 -6 7 -12 -2 -7 -10 -12 -16 -10 -6 1 -11 -2
-11 -8 0 -5 7 -10 15 -10 8 0 15 -4 15 -10 0 -5 -7 -7 -15 -4 -11 5 -14 1 -9
-12 5 -15 4 -16 -5 -4 -5 8 -24 15 -41 16 -28 2 -29 1 -13 -13 17 -14 17 -14
1 -9 -10 3 -18 1 -18 -4 0 -9 14 -14 32 -11 4 0 4 -7 1 -16 -4 -11 -8 -13 -11
-5 -2 7 -10 12 -18 12 -9 0 -13 -4 -10 -9 7 -10 -20 -9 -30 2 -4 4 -12 7 -18
7 -6 0 -5 -5 2 -12 7 -7 12 -16 12 -22 0 -5 -6 -1 -14 9 -12 16 -16 17 -30 6
-9 -7 -16 -11 -16 -7 0 3 18 17 41 32 22 14 38 28 34 32 -4 4 -10 1 -12 -6 -3
-6 -9 -10 -14 -6 -5 3 -9 0 -9 -6 0 -6 -4 -9 -9 -6 -5 3 -14 -1 -21 -9 -14
-17 -30 -20 -30 -4 0 5 4 8 9 5 10 -6 25 24 16 32 -3 3 -5 0 -5 -6 0 -7 -7
-12 -16 -12 -8 0 -12 5 -9 10 3 6 1 10 -4 10 -6 0 -11 -5 -11 -10 0 -12 -37
-9 -57 3 -7 4 -22 3 -33 -3 -25 -13 -25 -16 -1 -16 11 0 17 4 14 9 -3 5 0 7 8
5 8 -3 13 -10 12 -16 -3 -11 36 -10 55 2 6 3 9 0 8 -9 -3 -23 -13 -27 -34 -16
-13 7 -23 7 -32 -2 -9 -8 -11 -8 -7 -1 4 7 0 15 -9 18 -20 8 -25 8 -22 -1 2
-5 -1 -8 -7 -8 -5 0 -9 3 -7 8 4 13 -21 7 -41 -10 -11 -10 -17 -13 -14 -7 4 7
0 15 -9 18 -24 9 -26 8 -14 -15 7 -11 9 -23 7 -26 -3 -2 -8 5 -12 17 -5 16
-13 20 -27 17 -15 -4 -17 -3 -7 9 6 7 15 11 20 8 5 -3 6 2 3 10 -5 14 -8 14
-21 1 -8 -8 -19 -15 -24 -15 -6 0 -8 -4 -4 -9 3 -5 0 -13 -6 -17 -8 -5 -9 -3
-4 6 6 10 4 12 -9 7 -10 -4 -15 -3 -11 3 3 6 1 10 -5 10 -6 0 -8 5 -4 11 4 8
9 7 15 -2 7 -11 12 -10 26 5 12 13 13 16 2 8 -12 -9 -18 -9 -28 1 -9 9 -14 9
-20 -2 -6 -8 -14 -10 -22 -5 -21 13 -39 14 -39 2 0 -6 -8 -7 -17 -3 -14 5 -15
3 -7 -5 9 -9 17 -9 32 -1 14 7 23 8 27 1 3 -5 -1 -10 -10 -10 -9 0 -13 -4 -10
-10 3 -5 13 -10 21 -10 8 0 12 5 9 10 -3 6 -2 10 4 10 5 0 9 -9 8 -19 0 -11
-4 -19 -7 -17 -3 1 -18 8 -33 16 -25 12 -30 12 -39 0 -8 -12 -9 -11 -4 4 5 13
2 17 -8 13 -10 -4 -14 0 -11 14 2 10 0 19 -6 19 -5 0 -9 -4 -9 -9 0 -5 -11 -8
-25 -8 -13 0 -22 3 -19 8 3 5 0 9 -5 9 -6 0 -11 -5 -11 -10 0 -12 -37 -9 -57
3 -7 4 -22 3 -33 -3 -25 -13 -25 -16 -1 -16 11 0 17 4 14 9 -3 5 0 7 8 5 8 -3
13 -10 12 -16 -3 -11 36 -10 55 2 6 3 9 0 8 -9 -3 -23 -13 -27 -34 -16 -13 7
-23 7 -32 -2 -9 -8 -11 -8 -7 -1 4 7 0 15 -9 18 -20 8 -25 8 -22 -1 2 -5 -1
-8 -7 -8 -5 0 -9 3 -7 8 1 4 -5 7 -14 7 -8 0 -13 -4 -9 -9 3 -5 1 -12 -5 -16
-6 -4 -7 -11 -4 -17 4 -7 2 -8 -5 -4 -9 6 -9 11 0 22 14 17 5 18 -23 3 -15 -8
-19 -8 -14 0 9 14 0 14 -25 0 -11 -5 -17 -14 -14 -20 4 -5 1 -9 -4 -9 -6 0
-11 5 -11 10 0 6 -5 10 -11 10 -6 0 -8 -9 -4 -20 4 -12 2 -20 -5 -20 -6 0 -8
5 -4 13 5 8 2 8 -9 -2 -24 -19 -21 2 2 23 11 10 25 15 32 10 8 -4 10 -3 5 4
-4 7 -14 12 -22 12 -9 0 -12 5 -8 13 4 7 3 8 -2 4 -5 -5 -9 -16 -9 -25 0 -9
-5 -16 -11 -15 -13 2 -15 -28 -1 -44 12 -16 -5 -17 -20 -2 -8 8 -13 8 -18 0
-3 -6 -2 -10 4 -9 5 2 17 -6 26 -17 9 -11 13 -14 9 -6 -4 9 -3 12 4 7 7 -4 10
1 7 14 -2 11 0 18 6 15 5 -4 7 -11 4 -16 -4 -5 2 -9 12 -10 15 0 14 -2 -4 -9
-20 -8 -24 -23 -11 -45 3 -5 5 -23 4 -40 -2 -16 2 -33 8 -37 7 -5 7 -8 -2 -8
-7 0 -11 -4 -7 -9 3 -5 1 -13 -5 -16 -6 -4 -9 -1 -8 6 2 6 -4 14 -12 16 -12 4
-12 3 -2 -5 21 -14 19 -22 -8 -37 -14 -8 -20 -15 -15 -15 6 0 17 -4 25 -10 12
-7 12 -12 -4 -28 -11 -13 -13 -22 -7 -26 6 -4 8 -13 5 -20 -3 -8 -1 -17 4 -20
6 -3 9 9 7 29 -1 21 2 32 8 28 6 -4 7 -1 2 7 -5 9 -4 11 4 6 6 -4 8 -12 5 -18
-5 -8 -1 -9 12 -5 18 7 18 6 -1 -8 -17 -14 -18 -17 -5 -25 12 -8 13 -10 1 -10
-8 0 -11 -3 -8 -7 4 -3 1 -13 -6 -21 -10 -13 -9 -15 5 -9 10 3 20 1 24 -5 4
-6 3 -8 -2 -5 -6 3 -15 -3 -22 -13 -10 -16 -9 -21 6 -30 15 -10 15 -11 0 -6
-9 3 -19 2 -21 -2 -2 -4 -2 0 0 8 3 12 2 12 -8 3 -9 -9 -9 -16 -1 -26 7 -8 9
-17 5 -20 -3 -4 -12 1 -20 11 -13 15 -13 15 -3 -5 10 -22 7 -27 -13 -24 -5 1
-6 -3 -2 -9 3 -6 12 -7 18 -3 7 4 20 9 31 10 13 2 17 -1 12 -13 -4 -12 -2 -15
9 -10 8 3 15 2 15 -3 0 -5 -10 -11 -22 -14 l-22 -6 24 -28 c14 -15 18 -22 8
-15 -11 9 -18 10 -23 2 -3 -5 -1 -10 6 -10 7 0 9 -3 6 -7 -4 -3 1 -12 11 -20
16 -12 16 -13 -2 -6 -13 4 -17 3 -12 -5 3 -6 -4 -18 -16 -26 -12 -9 -17 -16
-10 -16 7 0 11 -4 7 -9 -3 -5 -1 -12 4 -15 5 -4 8 2 7 11 -3 17 10 33 27 33 5
0 1 -7 -8 -16 -13 -13 -13 -19 -3 -32 9 -10 9 -13 1 -9 -6 4 -14 3 -18 -2 -3
-5 3 -14 12 -20 10 -6 12 -11 6 -11 -7 0 -12 -3 -12 -7 3 -19 -2 -23 -20 -14
-14 8 -20 7 -24 -2 -3 -9 6 -12 30 -12 18 1 37 -3 40 -8 3 -6 1 -7 -5 -3 -7 4
-12 2 -12 -3 0 -18 5 -26 13 -23 5 1 6 -2 2 -8 -3 -6 -11 -8 -16 -5 -5 4 -12
-1 -15 -9 -3 -9 -11 -13 -18 -9 -6 4 -5 -1 3 -10 14 -18 26 -23 16 -8 -3 5 0
13 7 17 7 4 10 4 6 -1 -4 -4 -2 -15 5 -23 8 -10 8 -13 1 -9 -19 11 -25 -21 -6
-33 16 -11 16 -11 0 -6 -9 3 -19 2 -21 -2 -2 -4 -2 0 0 8 3 12 2 12 -8 3 -9
-9 -9 -16 -1 -26 7 -8 9 -17 5 -20 -3 -4 -12 1 -20 11 -13 15 -13 15 -3 -5 10
-22 7 -27 -13 -24 -5 1 -6 -3 -2 -9 3 -6 12 -7 18 -3 7 4 20 9 31 10 13 2 17
-1 12 -13 -4 -12 -2 -15 9 -10 8 3 15 2 15 -3 0 -5 -9 -11 -19 -14 -19 -5 -22
-21 -9 -42 3 -5 5 -23 4 -40 -2 -16 2 -33 8 -37 7 -5 7 -8 -2 -8 -7 0 -11 -4
-7 -9 3 -5 1 -13 -5 -16 -6 -4 -9 -1 -8 6 2 6 -4 14 -12 16 -12 4 -12 3 -2 -5
21 -14 19 -22 -8 -37 -14 -8 -20 -15 -15 -15 6 0 17 -4 25 -10 12 -7 12 -12
-4 -28 -11 -13 -13 -22 -7 -26 6 -4 8 -13 5 -20 -3 -8 -1 -17 4 -20 6 -3 9 9
7 29 -1 21 2 32 8 28 6 -4 7 -1 2 7 -5 9 -4 11 4 6 6 -4 8 -12 5 -18 -5 -8 -1
-9 12 -5 18 7 18 6 -1 -8 -17 -14 -18 -17 -5 -25 12 -8 13 -10 1 -10 -8 0 -11
-3 -8 -7 4 -3 1 -13 -6 -21 -10 -13 -9 -15 5 -9 10 3 20 1 24 -5 4 -6 3 -8 -2
-5 -6 3 -15 -3 -22 -13 -10 -16 -9 -21 6 -30 15 -10 15 -11 0 -6 -9 3 -19 2
-21 -2 -2 -4 -2 0 0 8 3 12 2 12 -8 3 -9 -9 -9 -16 -1 -26 7 -8 9 -17 5 -20
-3 -4 -12 1 -20 11 -13 15 -13 15 -3 -5 10 -22 7 -27 -13 -24 -5 1 -6 -3 -2
-9 3 -6 12 -7 18 -3 7 4 20 9 31 10 13 2 17 -1 12 -13 -4 -12 -2 -15 9 -10 8
3 15 2 15 -3 0 -5 -9 -11 -21 -14 -17 -5 -19 -9 -10 -25 7 -13 7 -22 -1 -30
-6 -6 -7 -16 -2 -24 5 -7 10 -22 11 -33 2 -15 1 -17 -6 -6 -5 8 -16 11 -27 7
-12 -5 -14 -10 -6 -18 13 -13 4 -40 -11 -31 -6 3 -7 1 -3 -5 8 -13 56 4 56 20
0 4 4 8 8 8 5 0 9 -7 9 -15 0 -8 -4 -12 -8 -10 -3 3 -11 -1 -17 -8 -8 -9 0
-12 35 -12 39 1 42 -1 27 -12 -12 -9 -21 -10 -28 -3 -5 5 -15 10 -21 10 -5 0
-3 -5 5 -10 8 -5 10 -10 4 -10 -6 0 -11 -7 -11 -15 0 -8 4 -12 8 -9 4 2 10 -2
13 -8 3 -7 3 -2 -1 12 -5 21 -4 23 9 12 9 -7 24 -9 33 -5 11 4 16 2 12 -3 -3
-6 -2 -16 2 -23 6 -10 10 -9 14 3 3 8 -1 22 -9 31 -9 8 -11 15 -5 15 5 0 13
-5 16 -10 4 -6 16 -8 26 -5 11 4 26 2 34 -5 9 -7 15 -8 20 0 3 5 1 10 -4 10
-6 0 -11 5 -11 11 0 8 4 8 14 0 11 -10 16 -8 24 5 9 16 10 15 17 -5 3 -11 11
-19 16 -16 5 4 5 15 -2 28 -10 21 -10 21 5 3 18 -23 46 -30 46 -13 0 7 5 5 10
-3 5 -8 10 -11 10 -6 0 5 7 3 15 -4 12 -10 18 -10 30 0 8 7 15 9 15 4 0 -4 6
0 13 11 11 14 16 15 22 5 5 -9 4 -11 -3 -6 -7 4 -12 3 -12 -2 0 -16 13 -22 27
-11 7 6 13 8 13 3 0 -4 7 1 15 12 11 14 14 15 9 2 -5 -16 -2 -16 35 -9 2 1 -3
9 -10 19 -13 15 -12 16 4 3 13 -10 15 -17 6 -27 -8 -10 -8 -14 -1 -14 6 0 14
5 17 10 3 5 12 10 18 10 7 0 6 -4 -3 -10 -12 -8 -10 -10 10 -7 14 1 31 6 39
11 10 6 12 5 7 -2 -4 -7 -1 -12 7 -12 9 0 13 9 12 25 -2 14 1 23 5 20 5 -3 6
-13 3 -22 -4 -10 -2 -14 4 -10 5 4 19 0 29 -8 17 -12 21 -11 41 11 21 25 21
25 28 4 3 -11 11 -18 16 -14 6 3 5 12 -3 22 -12 15 -11 16 6 2 21 -16 46 -22
46 -10 0 4 8 11 17 14 16 6 16 6 0 -12 -13 -14 -14 -21 -5 -30 9 -9 9 -12 0
-12 -7 0 -12 4 -12 8 0 4 -11 8 -24 8 -14 0 -22 -4 -20 -8 3 -4 0 -8 -5 -8 -6
0 -11 4 -11 9 0 5 -7 12 -16 15 -10 4 -13 2 -8 -6 5 -7 3 -8 -6 -3 -8 5 -11 4
-6 -3 7 -11 -12 -11 -31 1 -8 5 -13 3 -13 -4 0 -9 -3 -9 -14 0 -10 8 -16 9
-21 1 -3 -5 2 -10 12 -10 15 0 16 -2 3 -10 -8 -5 -10 -10 -5 -10 6 0 16 5 23
12 8 8 15 8 26 -1 11 -9 17 -8 29 3 19 19 31 8 14 -13 -10 -14 -10 -14 4 -4 9
7 19 10 22 6 4 -3 7 -2 7 3 0 5 9 10 20 11 14 1 18 -2 13 -10 -4 -7 5 -4 19 5
26 17 27 17 47 -7 10 -14 22 -21 25 -16 3 5 1 11 -6 13 -14 5 -20 38 -7 38 6
0 7 5 4 10 -4 6 4 5 19 -1 14 -7 24 -15 21 -18 -2 -4 0 -13 4 -20 6 -10 10 -9
14 3 3 8 -1 22 -9 31 -9 8 -11 15 -5 15 5 0 13 -5 16 -11 4 -6 14 -8 24 -4 12
5 13 4 4 -6 -8 -8 -9 -18 -3 -29 12 -22 37 -32 37 -15 0 8 -7 11 -16 7 -14 -5
-14 -4 -1 12 13 17 15 17 37 -8 12 -14 24 -22 28 -17 3 5 0 11 -7 13 -14 5
-20 38 -7 38 6 0 7 5 4 10 -4 6 4 5 19 -1 14 -7 24 -15 21 -18 -2 -4 0 -13 4
-20 6 -10 10 -9 14 3 3 8 -1 22 -9 31 -9 8 -11 15 -5 15 5 0 12 -4 16 -9 9
-16 58 -5 66 15 7 19 8 19 8 0 1 -11 4 -16 8 -13 3 4 12 2 20 -4 16 -14 17 -1
1 21 -7 9 -3 6 8 -6 24 -25 41 -20 21 5 -11 14 -10 15 7 1 26 -20 46 -21 47
-2 0 14 2 13 9 -3 5 -11 9 -16 9 -11 1 5 8 3 16 -4 11 -9 18 -10 28 -1 8 6 17
8 20 4 4 -3 7 0 7 8 1 10 4 9 11 -4 8 -14 14 -16 25 -6 8 6 14 8 15 3 0 -5 4
0 9 11 7 16 9 17 9 3 1 -19 29 -18 42 3 5 8 9 9 9 3 0 -5 -5 -15 -12 -22 -9
-9 -9 -12 -1 -12 7 0 15 4 18 10 3 5 12 10 18 10 7 0 6 -4 -3 -10 -12 -8 -10
-10 10 -7 14 1 31 6 39 11 10 6 12 5 7 -2 -4 -7 -1 -12 8 -12 10 0 13 6 10 18
-5 14 -4 15 5 2 6 -8 11 -11 11 -6 0 4 11 1 23 -7 22 -14 25 -14 42 6 17 20
18 20 31 2 14 -18 15 -18 18 7 0 6 8 13 16 15 13 4 13 3 0 -6 -8 -6 -13 -11
-10 -12 3 0 13 -2 23 -4 9 -2 17 0 17 5 0 4 8 11 17 14 16 6 16 6 0 -12 -13
-14 -14 -21 -5 -30 9 -9 9 -12 0 -12 -7 0 -12 4 -12 8 0 4 -11 8 -24 8 -14 0
-22 -4 -20 -8 3 -4 0 -8 -5 -8 -6 0 -11 4 -11 9 0 5 -7 12 -16 15 -10 4 -13 2
-8 -6 5 -7 3 -8 -6 -3 -8 5 -11 4 -6 -3 7 -11 -12 -11 -31 1 -8 5 -13 3 -13
-4 0 -9 -3 -9 -14 0 -10 8 -16 9 -21 1 -3 -5 2 -10 12 -10 15 0 16 -2 3 -10
-8 -5 -10 -10 -5 -10 6 0 16 5 23 12 8 8 15 8 26 -1 11 -9 17 -8 29 3 19 19
31 8 14 -13 -10 -14 -10 -14 4 -4 9 7 19 10 22 6 4 -3 7 -2 7 3 0 5 9 10 20
11 14 1 18 -2 13 -10 -4 -7 5 -4 19 5 26 17 27 17 47 -7 10 -14 22 -21 25 -16
3 5 1 11 -6 13 -14 5 -20 38 -7 38 6 0 7 5 4 10 -4 6 4 5 19 -1 14 -7 24 -15
21 -18 -2 -4 0 -13 4 -20 6 -10 10 -9 14 3 3 8 -1 22 -9 31 -9 8 -11 15 -5 15
5 0 13 -5 16 -11 4 -6 14 -8 24 -4 12 5 13 3 4 -6 -14 -14 -7 -36 17 -49 12
-6 17 -5 17 5 0 8 -7 11 -16 7 -14 -5 -14 -4 -1 12 13 17 15 17 37 -8 12 -14
24 -22 28 -17 3 5 0 11 -7 13 -14 5 -20 38 -7 38 6 0 7 5 4 10 -4 6 4 5 19 -1
14 -7 24 -15 21 -18 -2 -4 0 -13 4 -20 6 -10 10 -9 14 3 3 8 -1 22 -9 31 -9 8
-11 15 -5 15 5 0 13 -5 16 -10 4 -6 16 -8 26 -5 11 4 26 2 34 -5 9 -7 15 -8
20 0 3 5 1 10 -4 10 -6 0 -11 5 -11 12 0 9 3 9 12 0 10 -10 16 -8 31 10 10 13
16 18 13 11 -9 -16 3 -41 18 -39 22 3 66 36 63 47 -1 6 6 13 17 14 15 3 13 -2
-10 -27 -16 -17 -24 -28 -17 -24 6 3 14 2 18 -4 3 -5 2 -10 -4 -10 -5 0 -17
-3 -27 -7 -13 -5 -15 -3 -9 8 8 12 6 12 -8 0 -9 -7 -17 -10 -17 -5 0 5 -5 2
-10 -6 -6 -9 -10 -10 -10 -3 0 6 -9 11 -19 10 -11 0 -18 -4 -15 -8 5 -9 -17
-6 -33 4 -8 5 -13 4 -13 -2 0 -6 -5 -11 -11 -11 -5 0 -7 5 -3 12 4 7 3 8 -4 4
-6 -4 -9 -13 -5 -22 4 -11 9 -12 19 -3 11 9 17 9 28 0 11 -9 17 -8 29 3 19 19
31 8 14 -13 -10 -14 -10 -14 4 -4 9 7 20 9 24 5 5 -4 5 -2 1 5 -4 7 0 12 11
12 10 -1 28 2 41 6 19 6 21 5 16 -11 -4 -11 -4 -16 0 -13 11 11 15 48 5 54 -5
4 -6 11 -3 17 4 6 10 5 16 -3 8 -11 9 -10 5 3 -6 17 15 42 26 31 4 -3 7 -2 7
4 0 15 -26 24 -47 17 -10 -3 -7 2 7 10 14 8 21 15 16 16 -6 0 -1 7 10 16 16
13 16 15 2 10 -12 -3 -18 0 -18 10 0 8 -4 13 -9 10 -4 -3 -7 6 -5 19 1 14 -3
25 -9 25 -5 0 -8 2 -5 5 3 3 13 2 22 -1 14 -5 15 -9 4 -15 -10 -7 -11 -9 0 -9
7 0 11 -4 7 -9 -3 -5 -1 -12 4 -15 5 -4 8 2 6 11 -1 10 3 24 9 32 8 11 8 13
-1 8 -8 -5 -11 0 -10 13 1 11 4 20 7 20 3 0 6 9 7 21 1 12 -3 19 -10 16 -7 -2
-11 -16 -11 -30 1 -15 -3 -27 -7 -27 -5 0 -7 15 -6 33 4 38 -8 58 -31 50 -14
-4 -15 -3 -2 5 9 7 19 7 26 2 6 -6 15 -6 19 -2 5 4 4 0 0 -8 -9 -16 -10 -16
35 18 3 2 -2 3 -10 1 -8 -2 -26 1 -39 5 -18 6 -21 10 -10 17 12 8 12 11 -1 20
-13 9 -12 10 3 5 10 -3 21 -6 24 -6 3 0 1 -6 -5 -13 -8 -10 -6 -13 11 -14 12
0 16 1 9 4 -10 4 -10 8 0 21 9 10 9 13 1 9 -8 -5 -11 0 -10 13 1 11 6 20 11
20 5 0 6 3 3 7 -4 3 -1 13 6 22 10 14 10 14 -4 4 -9 -7 -18 -10 -21 -8 -3 3
-4 -6 -3 -20 2 -14 -1 -25 -7 -25 -6 0 -8 9 -5 20 3 12 -1 24 -11 30 -14 8
-14 9 -2 10 13 0 13 2 0 11 -13 9 -12 10 3 5 11 -3 17 0 17 10 0 8 -4 13 -9
10 -4 -3 -7 6 -5 19 1 14 -3 25 -9 25 -5 0 -8 2 -5 5 3 3 13 2 22 -1 14 -5 15
-9 4 -15 -10 -7 -11 -9 0 -9 7 0 11 -4 7 -9 -3 -5 -1 -12 4 -15 5 -4 8 2 6 11
-1 10 3 24 9 32 8 11 8 13 -1 8 -8 -5 -11 0 -10 13 1 11 4 20 7 20 3 0 6 9 7
21 1 12 -3 19 -10 16 -7 -2 -11 -16 -11 -30 1 -15 -3 -27 -7 -27 -5 0 -7 15
-6 33 4 38 -8 58 -31 50 -14 -4 -15 -3 -2 5 9 7 19 7 26 2 6 -6 15 -6 19 -2 5
4 4 0 0 -8 -9 -16 -10 -16 35 18 3 2 -2 3 -10 1 -8 -2 -26 1 -39 5 -18 6 -21
10 -10 17 12 8 12 11 -1 20 -13 9 -12 10 3 5 10 -3 21 -6 24 -6 3 0 1 -6 -5
-13 -8 -10 -6 -13 11 -14 12 0 16 1 9 4 -10 4 -10 8 0 21 9 10 9 13 1 9 -8 -5
-11 0 -10 13 1 11 6 20 11 20 5 0 6 3 3 7 -4 3 -1 13 6 22 10 14 10 14 -4 4
-9 -7 -18 -10 -21 -8 -3 3 -4 -6 -3 -20 2 -14 -1 -25 -7 -25 -6 0 -8 9 -5 20
3 12 -1 24 -11 30 -14 8 -14 9 -2 10 13 0 13 2 0 11 -13 9 -12 10 3 5 11 -3
17 0 17 10 0 8 -4 13 -9 10 -4 -3 -7 6 -5 19 1 14 -3 25 -9 25 -5 0 -8 2 -5 5
3 3 13 2 22 -1 14 -5 15 -9 4 -15 -10 -7 -11 -9 0 -9 7 0 11 -4 7 -9 -3 -5 -1
-12 4 -15 5 -4 8 2 6 11 -1 10 3 24 9 32 8 11 8 13 -1 8 -8 -5 -11 0 -10 13 1
11 4 20 7 20 3 0 6 9 7 21 1 12 -3 19 -10 16 -7 -2 -11 -16 -11 -30 1 -15 -3
-27 -7 -27 -5 0 -7 15 -6 33 4 38 -8 58 -31 50 -14 -4 -15 -3 -2 5 9 7 19 7
26 2 6 -6 15 -6 19 -2 5 4 4 0 0 -8 -9 -16 -10 -16 35 18 3 2 -2 3 -10 1 -8
-2 -26 1 -39 5 -18 6 -21 10 -10 17 12 8 12 11 -1 20 -13 9 -12 10 3 5 10 -3
21 -6 24 -6 3 0 1 -6 -5 -13 -8 -10 -6 -13 11 -14 12 0 16 1 9 4 -10 4 -10 8
0 21 9 10 9 13 1 9 -8 -5 -11 0 -10 13 1 11 6 20 11 20 5 0 6 3 3 7 -4 3 -1
13 6 22 10 14 10 14 -4 4 -9 -7 -18 -10 -21 -8 -3 3 -4 -6 -3 -20 2 -14 -1
-25 -7 -25 -6 0 -8 9 -5 20 3 12 -1 24 -11 30 -14 8 -14 9 -2 10 13 0 13 2 0
11 -13 9 -12 10 3 5 11 -3 17 0 17 10 0 8 -4 13 -9 10 -4 -3 -7 6 -5 19 1 14
-3 25 -9 25 -5 0 -8 2 -5 5 3 3 13 2 22 -1 14 -5 15 -9 4 -15 -10 -7 -11 -9 0
-9 7 0 11 -4 7 -9 -3 -5 -1 -12 4 -15 5 -4 8 2 6 11 -1 10 3 24 9 32 8 11 8
13 -1 8 -8 -5 -11 0 -10 13 1 11 4 20 7 20 3 0 6 9 7 21 1 12 -3 19 -10 16 -7
-2 -11 -16 -11 -30 1 -15 -3 -27 -7 -27 -5 0 -7 15 -6 33 4 38 -8 58 -31 50
-14 -4 -15 -3 -2 5 9 7 19 7 26 2 6 -6 15 -6 19 -2 5 4 4 0 0 -8 -9 -16 -10
-16 35 18 3 2 -2 3 -10 1 -8 -2 -26 1 -39 5 -18 6 -21 10 -10 17 12 8 12 11
-1 20 -13 9 -12 10 3 5 10 -3 21 -6 24 -6 3 0 1 -6 -5 -13 -8 -10 -6 -13 11
-14 12 0 16 1 9 4 -10 4 -10 8 0 21 9 10 9 13 1 9 -8 -5 -11 0 -10 13 1 11 6
20 11 20 5 0 6 3 3 7 -4 3 -1 13 6 22 10 14 10 14 -4 4 -9 -7 -18 -10 -21 -8
-3 3 -4 -6 -3 -20 2 -14 -1 -25 -7 -25 -6 0 -8 9 -5 20 3 12 -1 24 -11 30 -14
8 -14 9 -2 10 13 0 13 2 0 11 -13 9 -12 10 3 5 11 -3 17 0 17 10 0 8 -4 13 -9
10 -4 -3 -7 6 -5 19 1 14 -3 25 -9 25 -5 0 -8 2 -5 5 3 3 13 2 22 -1 14 -5 15
-9 4 -15 -10 -7 -11 -9 0 -9 7 0 11 -4 7 -9 -3 -5 -1 -12 4 -15 5 -4 8 2 6 11
-1 10 3 24 9 32 8 11 8 13 -1 8 -8 -5 -11 0 -10 13 1 11 4 20 7 20 3 0 6 9 7
21 1 12 -3 19 -10 16 -7 -2 -11 -16 -11 -30 1 -15 -3 -27 -7 -27 -5 0 -7 15
-6 33 4 38 -8 58 -31 50 -14 -4 -15 -3 -2 5 9 7 19 7 26 2 6 -6 15 -6 19 -2 5
4 4 0 0 -8 -8 -13 -7 -13 11 0 29 22 30 24 13 18 -8 -3 -25 0 -38 7 -22 11
-22 12 -5 19 18 7 18 8 0 22 -11 8 -14 14 -7 14 7 0 11 8 10 18 -3 32 1 40 23
45 12 4 19 9 15 13 -4 4 -21 -3 -38 -15 l-31 -23 17 26 c9 14 15 31 12 38 -3
8 -6 6 -6 -5 -1 -10 -6 -15 -11 -12 -6 4 -7 12 -4 18 4 7 4 9 -1 5 -11 -11
-36 12 -28 25 3 6 1 7 -6 3 -6 -4 -9 -12 -6 -17 4 -5 0 -10 -7 -11 -7 0 -17
-2 -23 -3 -5 -2 -14 -3 -20 -4 -5 -1 -3 -6 5 -11 12 -8 11 -10 -5 -7 -11 1
-25 6 -32 10 -6 4 -14 3 -18 -3 -4 -6 -11 -7 -17 -4 -8 5 -9 1 -4 -12 5 -14 4
-16 -4 -7 -9 8 -9 16 -1 30 6 10 11 12 11 5 0 -9 7 -8 25 4 24 16 25 16 18 -2
-6 -18 -5 -18 16 1 13 11 25 18 28 17 3 -2 7 -1 10 2 3 3 -7 3 -22 0 -17 -3
-24 -1 -20 6 3 5 1 10 -4 10 -6 0 -11 -5 -11 -11 0 -6 -6 -9 -13 -6 -8 3 -20
1 -28 -3 -9 -6 -21 -3 -33 8 -12 11 -16 12 -11 3 6 -11 4 -13 -9 -8 -10 4 -15
3 -11 -3 3 -6 1 -10 -5 -10 -8 0 -8 -6 0 -21 7 -11 9 -23 7 -26 -3 -2 -8 5
-12 17 -5 16 -13 20 -27 17 -15 -4 -17 -3 -7 9 6 7 15 12 18 9 4 -2 8 2 8 10
0 8 -4 15 -9 15 -4 0 -8 -4 -8 -9 0 -5 -9 -13 -20 -16 -11 -4 -18 -10 -15 -15
3 -5 0 -12 -6 -16 -8 -5 -9 -3 -4 6 5 8 3 11 -6 8 -8 -3 -13 -11 -11 -17 1 -7
-2 -10 -7 -7 -5 4 -8 15 -6 26 2 11 -1 23 -7 26 -7 4 -8 2 -4 -4 4 -7 2 -12
-4 -12 -6 0 -9 -4 -6 -9 4 -5 -4 -7 -16 -3 -13 3 -19 1 -15 -6 8 -11 -18 -11
-29 1 -4 4 -12 7 -18 7 -6 0 -5 -5 2 -12 7 -7 12 -16 12 -22 0 -5 -6 -1 -14 9
-12 17 -16 18 -32 5 -11 -9 -15 -10 -10 -2 4 6 20 19 37 27 16 9 29 21 28 28
0 9 -2 9 -6 -1 -2 -6 -9 -10 -14 -6 -5 3 -9 0 -9 -7 0 -7 -3 -9 -7 -6 -3 4
-13 2 -20 -5 -8 -7 -23 -12 -34 -13 -15 -1 -16 1 -7 12 8 10 13 11 18 3 5 -8
9 -6 14 6 3 9 4 19 1 22 -3 3 -5 0 -5 -8 0 -10 -4 -10 -17 1 -9 8 -14 9 -10 2
4 -7 -1 -14 -13 -18 -11 -4 -18 -10 -15 -15 3 -5 0 -12 -6 -16 -8 -5 -9 -3 -4
6 5 8 3 11 -6 8 -8 -3 -13 -12 -11 -19 2 -8 0 -10 -4 -6 -10 10 -14 37 -6 36
30 -4 63 33 42 46 -6 4 -10 3 -9 -2 3 -20 -2 -34 -11 -28 -5 3 -10 1 -10 -4 0
-6 -3 -10 -7 -10 -20 3 -34 -2 -29 -10 4 -5 -4 -7 -16 -3 -16 4 -19 2 -13 -9
5 -8 5 -11 0 -7 -4 4 -15 2 -24 -4 -12 -10 -12 -8 2 8 25 30 21 37 -10 17
l-28 -17 24 27 c14 15 19 27 13 27 -7 0 -12 -4 -12 -9 0 -5 -9 -13 -20 -16
-11 -4 -18 -10 -15 -15 3 -5 0 -12 -6 -16 -8 -5 -9 -3 -5 5 10 15 -25 11 -36
-4 -4 -5 -6 0 -5 12 0 12 5 19 11 16 5 -3 6 -1 2 6 -4 6 -12 9 -17 6 -5 -4 -9
-1 -9 4 0 6 -5 11 -11 11 -6 0 -7 -5 -2 -12 4 -7 8 -24 8 -36 1 -22 0 -22 -12
-6 -7 9 -10 20 -8 24 2 4 -7 12 -21 19 -14 6 -23 7 -19 2 3 -5 -4 -12 -15 -16
-11 -4 -18 -10 -15 -15 3 -5 0 -12 -6 -16 -7 -4 -9 -3 -5 4 4 7 -1 10 -14 9
-11 -1 -20 -5 -20 -9 0 -4 -9 0 -19 10 -49 44 -77 58 -50 25 12 -14 12 -16 -1
-11 -8 3 -20 -2 -27 -11 -10 -14 -13 -14 -32 3 -17 16 -19 22 -8 35 11 14 10
14 -5 2 -14 -10 -15 -17 -7 -33 6 -11 8 -22 6 -25 -3 -2 -8 5 -12 18 -6 17 -9
19 -16 8 -5 -8 -9 -9 -9 -4 0 6 4 16 9 24 6 9 2 20 -12 34 -20 20 -20 21 -1
29 17 7 16 8 -3 4 -13 -2 -26 0 -29 5 -3 5 -9 7 -14 4 -5 -3 -11 -1 -14 4 -7
11 13 9 32 -2 13 -9 16 3 4 19 -4 5 -5 8 -3 6 3 -1 11 10 18 25 12 26 12 26 7
3 -4 -14 -7 -27 -8 -30 0 -3 4 -6 9 -7 6 -1 9 4 7 12 -2 9 6 12 22 11 21 -3
23 0 19 27 -3 18 0 33 8 37 17 11 48 -10 42 -29 -4 -14 -3 -14 5 -1 6 8 8 18
5 23 -3 5 5 6 18 2 28 -9 24 -3 -10 15 -19 10 -22 9 -16 -1 5 -8 4 -10 -3 -5
-18 11 -14 24 9 31 20 7 20 7 2 21 -17 14 -17 14 3 5 12 -6 23 -9 26 -8 2 1
-5 -6 -17 -17 l-20 -19 24 8 c18 5 22 4 16 -5 -5 -8 -4 -11 3 -6 6 4 8 14 5
22 -5 14 -3 15 18 4 l24 -11 -25 20 c-22 18 -21 26 2 22 4 0 4 7 1 16 -4 11
-3 14 5 9 8 -5 10 -1 5 10 -4 11 -8 13 -11 6 -2 -7 -8 -9 -14 -6 -5 3 -2 15 9
27 l18 22 -22 -19 c-18 -15 -20 -22 -12 -33 7 -7 9 -16 6 -20 -4 -3 -9 2 -13
11 -3 9 -11 13 -17 9 -6 -4 -2 9 10 28 11 19 19 41 16 49 -3 10 1 8 11 -4 9
-11 16 -15 16 -10 0 6 -6 16 -12 23 -11 12 -9 13 7 7 15 -6 17 -4 8 5 -15 15
-51 -9 -47 -33 1 -9 -4 -22 -12 -29 -10 -8 -14 -8 -14 0 0 6 4 11 8 11 5 0 9
7 9 15 0 8 -5 15 -11 15 -6 0 0 7 12 16 17 12 21 21 16 37 -6 20 -5 21 12 7
15 -11 16 -11 7 0 -19 21 -16 35 4 19 14 -11 13 -9 -2 12 -18 24 -24 26 -112
25 -87 -1 -91 -2 -76 -18 15 -17 15 -20 -3 -40 -10 -12 -13 -18 -5 -13 11 6
13 4 8 -9 -4 -10 -7 -20 -7 -22 0 -3 -4 -2 -10 1 -5 3 -10 1 -10 -5 0 -6 -5
-8 -12 -4 -10 6 -10 5 -1 -8 7 -8 10 -18 6 -21 -3 -4 -12 1 -20 11 -13 15 -13
15 -3 -6 6 -12 15 -20 20 -17 4 3 10 2 13 -2 2 -5 2 -1 0 7 -3 11 -1 12 8 3
16 -16 2 -35 -19 -24 -20 10 -45 3 -37 -9 3 -5 13 -7 23 -4 14 5 14 4 2 -4 -9
-7 -19 -7 -26 -2 -6 6 -13 7 -17 4 -3 -3 -3 3 0 15 3 11 9 18 14 15 5 -3 9 0
9 5 0 6 -4 11 -10 11 -5 0 -13 1 -17 3 -5 1 -8 -7 -8 -17 0 -11 -6 -20 -13
-22 -7 -1 -8 0 -2 3 5 2 10 9 10 14 0 6 -5 7 -11 3 -7 -4 -7 1 1 16 10 18 9
21 -1 15 -9 -6 -11 -3 -6 8 3 8 -1 21 -9 28 -14 12 -14 14 2 26 16 12 16 13 1
13 -9 0 -17 -3 -18 -7 0 -5 -2 -16 -4 -26 -2 -9 0 -15 5 -12 5 3 7 -3 6 -12
-2 -10 1 -21 6 -24 6 -4 6 -9 -1 -13 -6 -4 -11 -2 -11 4 0 6 -5 8 -12 4 -10
-6 -10 -5 -1 7 10 12 10 18 1 27 -12 12 -19 54 -9 48 3 -2 15 5 26 16 20 19
20 19 -7 9 -18 -7 -29 -7 -33 0 -4 5 -3 9 2 8 19 -3 34 2 29 10 -3 4 -46 8
-96 8 -75 0 -88 -2 -79 -14z m473 -5 c-5 -8 -2 -9 11 -5 16 7 17 6 1 -17 -19
-30 -20 -40 -3 -30 6 4 8 3 4 -1 -12 -13 -36 -15 -44 -3 -4 7 -1 8 7 3 10 -6
12 -4 7 9 -4 9 -3 14 2 11 5 -3 12 -1 15 4 4 5 2 12 -4 16 -10 6 -5 25 6 25 3
0 2 -5 -2 -12z m-99 -8 c-3 -5 -12 -10 -18 -10 -7 0 -6 4 3 10 19 12 23 12 15
0z m-15 -28 c0 -5 -6 -16 -13 -27 -13 -17 -14 -16 -11 6 3 31 2 29 14 29 6 0
10 -4 10 -8z m-223 -24 c-3 -8 -6 -5 -6 6 -1 11 2 17 5 13 3 -3 4 -12 1 -19z
m236 -3 c-3 -9 -8 -14 -10 -11 -3 3 -2 9 2 15 9 16 15 13 8 -4z m-23 -35 c-13
-9 -13 -10 0 -10 13 0 13 -2 1 -9 -9 -6 -21 -5 -32 2 -20 13 -11 22 23 24 18
2 20 0 8 -7z m146 -103 c4 -4 0 -7 -9 -7 -9 0 -18 4 -21 9 -7 10 20 9 30 -2z
m-385 -80 c-4 -4 -22 -10 -39 -12 -22 -3 -30 0 -26 9 3 8 17 12 34 10 24 -3
28 0 24 14 -5 14 -4 15 5 2 5 -8 7 -18 2 -23z m281 -33 c5 -7 4 -14 -4 -17 -9
-3 -14 6 -15 27 0 17 1 24 4 16 3 -8 10 -20 15 -26z m-232 13 c0 -5 -10 -5
-22 -1 -20 6 -21 5 -9 -9 7 -9 17 -14 22 -11 5 3 9 1 9 -4 0 -6 -7 -13 -16
-16 -8 -3 -12 -2 -9 3 3 5 -4 16 -16 24 -15 11 -17 16 -7 20 20 7 48 4 48 -6z
m174 -3 c3 -8 2 -12 -4 -9 -6 3 -10 10 -10 16 0 14 7 11 14 -7z m-140 -64 c10
-13 9 -13 -6 -1 -10 7 -18 21 -17 30 0 13 1 14 6 1 3 -8 11 -22 17 -30z m146
-52 c11 -12 17 -24 14 -27 -4 -3 -9 0 -11 7 -3 6 -10 9 -15 6 -7 -4 -8 -2 -4
4 3 6 -2 15 -11 21 -10 6 -13 11 -6 11 7 0 21 -10 33 -22z m-186 -44 c3 -8 2
-12 -4 -9 -6 3 -10 10 -10 16 0 14 7 11 14 -7z m-611 -17 c-2 -4 1 -14 7 -22
20 -24 0 -17 -22 8 -14 16 -18 17 -14 5 3 -10 1 -20 -3 -22 -5 -3 -7 5 -6 17
1 12 3 22 4 22 13 4 38 -1 34 -8z m1094 6 c-4 -3 -1 -13 6 -22 10 -14 10 -14
-5 -3 -10 8 -23 10 -30 6 -10 -6 -9 -3 1 9 7 9 18 17 24 17 6 0 7 -3 4 -7z
m617 -2 c3 -5 -2 -15 -11 -22 -12 -10 -14 -10 -9 -1 4 7 2 12 -6 12 -9 0 -9 3
2 10 18 12 18 12 24 1z m-767 -15 c0 -8 -6 -12 -15 -9 -11 5 -11 7 0 14 7 5
13 9 14 9 0 0 1 -6 1 -14z m937 -5 c13 -14 14 -21 5 -27 -7 -4 -10 -3 -7 2 3
5 0 15 -8 22 -10 10 -14 10 -14 1 0 -7 -3 -10 -6 -6 -5 5 3 27 10 27 2 0 11
-9 20 -19z m-909 -1 c3 -5 1 -10 -4 -10 -6 0 -11 5 -11 10 0 6 2 10 4 10 3 0
8 -4 11 -10z m-680 -10 c3 -5 1 -10 -4 -10 -6 0 -11 5 -11 10 0 6 2 10 4 10 3
0 8 -4 11 -10z m1611 -222 c0 -10 -1 -18 -3 -18 -1 0 -7 8 -12 18 -7 13 -6 19
2 19 7 0 13 -9 13 -19z m-2210 -30 c4 -6 3 -8 -4 -4 -18 11 -20 -18 -3 -39 11
-13 7 -12 -15 5 -31 25 -31 25 -10 37 26 15 24 15 32 1z m2210 -128 c0 -12 -4
-16 -9 -11 -5 5 -6 14 -3 20 10 15 12 14 12 -9z m-2201 -70 c3 -6 -1 -7 -9 -4
-18 7 -21 14 -7 14 6 0 13 -4 16 -10z m-25 -39 c0 -5 -8 -15 -17 -22 -16 -12
-17 -12 -6 2 7 9 10 19 6 22 -3 4 -1 7 5 7 7 0 12 -4 12 -9z m2226 -53 c0 -10
-1 -18 -3 -18 -1 0 -7 8 -12 18 -7 13 -6 19 2 19 7 0 13 -9 13 -19z m0 -158
c0 -12 -4 -16 -9 -11 -5 5 -6 14 -3 20 10 15 12 14 12 -9z m0 -162 c0 -10 -1
-18 -3 -18 -1 0 -7 8 -12 18 -7 13 -6 19 2 19 7 0 13 -9 13 -19z m-2201 -68
c3 -6 -1 -7 -9 -4 -18 7 -21 14 -7 14 6 0 13 -4 16 -10z m-25 -39 c0 -5 -8
-15 -17 -22 -16 -12 -17 -12 -6 2 7 9 10 19 6 22 -3 4 -1 7 5 7 7 0 12 -4 12
-9z m2226 -51 c0 -12 -4 -16 -9 -11 -5 5 -6 14 -3 20 10 15 12 14 12 -9z m0
-162 c0 -10 -1 -18 -3 -18 -1 0 -7 8 -12 18 -7 13 -6 19 2 19 7 0 13 -9 13
-19z m-2210 -30 c4 -6 3 -8 -4 -4 -18 11 -20 -18 -3 -39 11 -13 7 -12 -15 5
-31 25 -31 25 -10 37 26 15 24 15 32 1z m2210 -128 c0 -12 -4 -16 -9 -11 -5 5
-6 14 -3 20 10 15 12 14 12 -9z m-2201 -70 c3 -6 -1 -7 -9 -4 -18 7 -21 14 -7
14 6 0 13 -4 16 -10z m-25 -39 c0 -5 -8 -15 -17 -22 -16 -12 -17 -12 -6 2 7 9
10 19 6 22 -3 4 -1 7 5 7 7 0 12 -4 12 -9z m2226 -53 c0 -10 -1 -18 -3 -18 -1
0 -7 8 -12 18 -7 13 -6 19 2 19 7 0 13 -9 13 -19z m-2202 -90 c-3 -4 -9 -8
-15 -8 -5 0 -9 4 -9 8 0 5 7 9 15 9 8 0 12 -4 9 -9z m2220 -16 c7 -12 -12 -38
-21 -28 -4 5 -2 11 6 14 11 4 11 6 0 13 -9 6 -10 9 -2 9 6 0 14 -4 17 -8z
m-2261 -47 c4 -8 1 -17 -6 -21 -7 -4 -9 -4 -5 1 4 4 3 14 -3 22 -7 8 -8 13 -1
13 5 0 12 -7 15 -15z m1107 -50 c-14 -17 -30 -20 -30 -4 0 5 4 8 9 4 5 -3 12
-1 16 5 3 5 9 10 12 10 3 0 0 -7 -7 -15z m212 1 c10 6 11 4 0 -7 -10 -11 -15
-10 -30 6 -15 17 -15 18 0 6 9 -7 23 -9 30 -5z m307 -20 c0 -7 -2 -6 -6 2 -2
6 -8 10 -12 8 -4 -3 -8 1 -8 9 0 11 4 12 14 4 7 -6 13 -17 12 -23z m-1485 12
c-3 -4 -9 -8 -15 -8 -5 0 -9 4 -9 8 0 5 7 9 15 9 8 0 12 -4 9 -9z m211 2 c3
-5 1 -10 -4 -10 -6 0 -11 5 -11 10 0 6 2 10 4 10 3 0 8 -4 11 -10z m488 -2
c-6 -7 -9 -21 -8 -31 3 -14 0 -15 -9 -8 -7 6 -16 8 -19 4 -4 -3 -7 -2 -7 4 0
6 10 18 23 26 27 20 32 21 20 5z m47 6 c0 -8 -19 -13 -24 -6 -3 5 1 9 9 9 8 0
15 -2 15 -3z m74 -3 c-8 -9 -44 -11 -44 -3 0 4 11 8 25 8 13 0 22 -2 19 -5z
m39 -3 c-6 -7 -9 -21 -8 -31 3 -14 0 -16 -10 -7 -9 8 -15 8 -20 0 -3 -5 -11
-10 -17 -10 -7 0 4 14 22 30 35 31 50 39 33 18z m47 6 c0 -8 -19 -13 -24 -6
-3 5 1 9 9 9 8 0 15 -2 15 -3z m480 -4 c0 -5 -5 -10 -11 -10 -5 0 -7 5 -4 10
3 6 8 10 11 10 2 0 4 -4 4 -10z m273 -2 c-6 -7 -9 -21 -8 -31 3 -14 0 -15 -9
-8 -7 6 -16 8 -19 4 -4 -3 -7 -2 -7 4 0 6 10 18 23 26 27 20 32 21 20 5z m47
6 c0 -8 -19 -13 -24 -6 -3 5 1 9 9 9 8 0 15 -2 15 -3z m74 -3 c-8 -9 -44 -11
-44 -3 0 4 11 8 25 8 13 0 22 -2 19 -5z m39 -3 c-6 -7 -9 -21 -8 -31 3 -14 0
-16 -10 -7 -9 8 -15 8 -20 0 -3 -5 -11 -10 -17 -10 -7 0 4 14 22 30 35 31 50
39 33 18z m47 6 c0 -8 -19 -13 -24 -6 -3 5 1 9 9 9 8 0 15 -2 15 -3z m54 -6
c-3 -4 -9 -8 -15 -8 -5 0 -9 4 -9 8 0 5 7 9 15 9 8 0 12 -4 9 -9z"/>
<path d="M953 2557 c4 -12 36 -11 50 2 4 4 -6 8 -23 9 -20 0 -30 -4 -27 -11z"/>
<path d="M935 2380 c3 -5 8 -10 11 -10 2 0 4 5 4 10 0 6 -5 10 -11 10 -5 0 -7
-4 -4 -10z"/>
<path d="M970 2365 c-15 -9 -19 -14 -10 -15 13 0 13 -1 0 -11 -10 -7 -11 -9
-2 -7 8 2 13 7 12 12 -1 4 7 14 17 22 23 17 15 17 -17 -1z"/>
<path d="M1387 2294 c-6 -10 9 -42 16 -34 3 3 1 14 -3 24 -3 11 -9 15 -13 10z"/>
<path d="M1398 2243 c7 -3 16 -2 19 1 4 3 -2 6 -13 5 -11 0 -14 -3 -6 -6z"/>
<path d="M1337 2158 c2 -5 10 -8 18 -8 8 0 16 3 18 8 3 4 -5 7 -18 7 -13 0
-21 -3 -18 -7z"/>
<path d="M794 2136 c1 -8 5 -18 8 -22 4 -3 5 1 4 10 -1 8 -5 18 -8 22 -4 3 -5
-1 -4 -10z"/>
<path d="M1551 2143 c3 -19 -2 -34 -10 -29 -5 3 -11 -1 -14 -9 -8 -20 21 -7
33 16 7 12 7 20 0 24 -6 4 -10 3 -9 -2z"/>
<path d="M2050 2140 c0 -5 5 -10 11 -10 5 0 7 5 4 10 -3 6 -8 10 -11 10 -2 0
-4 -4 -4 -10z"/>
<path d="M2233 2135 c0 -8 4 -12 9 -9 5 3 6 10 3 15 -9 13 -12 11 -12 -6z"/>
<path d="M221 2124 c0 -11 3 -14 6 -6 3 7 2 16 -1 19 -3 4 -6 -2 -5 -13z"/>
<path d="M292 2128 c-7 -7 -12 -8 -12 -2 0 5 -5 2 -10 -6 -6 -10 -10 -11 -10
-2 0 7 -9 3 -21 -9 -11 -11 -19 -23 -16 -25 3 -3 11 2 19 10 11 10 19 11 26 4
7 -7 19 -5 38 6 27 15 27 16 4 10 -22 -6 -23 -5 -11 10 16 19 11 22 -7 4z"/>
<path d="M771 2128 c-1 -10 -6 -18 -12 -18 -5 0 -7 5 -3 12 4 7 3 8 -4 4 -16
-10 -15 -14 7 -26 24 -12 31 -2 20 25 -6 17 -8 17 -8 3z"/>
<path d="M2023 2120 c6 -11 15 -20 19 -20 12 0 -3 28 -18 34 -11 4 -12 2 -1
-14z"/>
<path d="M1387 2124 c-8 -8 3 -34 14 -34 11 0 12 27 0 34 -4 3 -11 3 -14 0z"/>
<path d="M1481 2124 c-1 -6 5 -17 13 -23 11 -9 15 -7 19 9 4 17 3 19 -8 10
-10 -8 -14 -7 -18 2 -3 8 -6 8 -6 2z"/>
<path d="M1688 2112 c-5 -19 -4 -20 13 -11 10 5 19 15 19 22 0 8 -3 8 -9 -2
-7 -11 -9 -11 -13 0 -3 8 -7 5 -10 -9z"/>
<path d="M1795 2119 c-10 -15 3 -25 16 -12 7 7 7 13 1 17 -6 3 -14 1 -17 -5z"/>
<path d="M2088 2112 c-5 -19 -4 -20 13 -11 10 5 19 15 19 22 0 8 -3 8 -9 -2
-7 -11 -9 -11 -13 0 -3 8 -7 5 -10 -9z"/>
<path d="M2390 2120 c0 -5 5 -10 11 -10 5 0 7 5 4 10 -3 6 -8 10 -11 10 -2 0
-4 -4 -4 -10z"/>
<path d="M1041 2101 c-8 -6 -9 -11 -3 -15 6 -3 14 -1 17 5 9 14 2 20 -14 10z"/>
<path d="M2001 2101 c-8 -6 -9 -11 -3 -15 6 -3 14 -1 17 5 9 14 2 20 -14 10z"/>
<path d="M2445 2030 c-11 -5 -15 -9 -9 -9 13 -1 14 -31 1 -31 -5 0 -5 -6 2
-13 7 -9 7 -17 1 -23 -6 -6 -2 -10 13 -11 12 0 16 1 9 4 -10 4 -10 8 0 21 9
10 9 13 1 9 -8 -5 -11 0 -10 13 1 11 4 20 7 20 4 0 7 7 7 15 0 8 -1 15 -1 14
-1 0 -10 -4 -21 -9z"/>
<path d="M147 1960 c11 -36 11 -50 2 -50 -5 0 -9 -5 -9 -11 0 -5 4 -8 9 -4 5
3 12 1 15 -4 4 -5 -2 -11 -11 -13 -15 -3 -15 -5 3 -10 19 -5 20 -2 17 36 -5
62 -6 65 -14 60 -4 -2 -9 -1 -12 3 -2 5 -2 1 0 -7z"/>
<path d="M130 1840 c0 -5 5 -10 11 -10 5 0 7 5 4 10 -3 6 -8 10 -11 10 -2 0
-4 -4 -4 -10z"/>
<path d="M130 1780 c0 -5 5 -10 11 -10 5 0 7 5 4 10 -3 6 -8 10 -11 10 -2 0
-4 -4 -4 -10z"/>
<path d="M2470 1780 c0 -5 5 -10 11 -10 5 0 7 5 4 10 -3 6 -8 10 -11 10 -2 0
-4 -4 -4 -10z"/>
<path d="M2439 1733 c-13 -15 -12 -15 9 -4 23 12 28 21 13 21 -5 0 -15 -7 -22
-17z"/>
<path d="M130 1681 c0 -9 38 -12 44 -3 2 4 -7 8 -20 8 -13 1 -24 -1 -24 -5z"/>
<path d="M147 1639 c-4 -13 -10 -18 -18 -13 -8 4 -10 3 -5 -4 5 -9 14 -7 31 4
14 9 22 20 19 25 -9 15 -21 10 -27 -12z"/>
<path d="M160 1530 c-12 -7 -12 -12 -2 -22 6 -6 12 -10 13 -7 0 2 2 12 4 22 4
20 4 19 -15 7z"/>
<path d="M142 1487 c10 -24 31 -34 29 -14 -1 4 -3 6 -6 5 -2 -2 -11 6 -20 17
-14 19 -15 18 -3 -8z"/>
<path d="M2470 1460 c0 -5 5 -10 11 -10 5 0 7 5 4 10 -3 6 -8 10 -11 10 -2 0
-4 -4 -4 -10z"/>
<path d="M155 1440 c3 -5 1 -10 -4 -10 -6 0 -11 -5 -11 -11 0 -5 4 -8 9 -4 5
3 12 1 15 -4 4 -5 1 -11 -6 -14 -8 -2 -7 -3 2 -3 13 1 16 11 11 46 0 6 -6 10
-12 10 -5 0 -7 -4 -4 -10z"/>
<path d="M2439 1413 c-13 -15 -12 -15 9 -4 23 12 28 21 13 21 -5 0 -15 -7 -22
-17z"/>
<path d="M130 1360 c0 -5 5 -10 11 -10 5 0 7 5 4 10 -3 6 -8 10 -11 10 -2 0
-4 -4 -4 -10z"/>
<path d="M140 1330 c-8 -5 -10 -10 -5 -10 6 0 17 5 25 10 8 5 11 10 5 10 -5 0
-17 -5 -25 -10z"/>
<path d="M153 1312 c-9 -6 -7 -11 6 -19 15 -10 19 -9 17 2 -3 20 -10 25 -23
17z"/>
<path d="M144 1244 c-16 -13 -16 -15 -2 -10 10 3 20 1 23 -4 3 -5 -2 -11 -10
-13 -12 -4 -12 -5 1 -3 18 1 28 32 15 41 -5 2 -17 -3 -27 -11z"/>
<path d="M130 1180 c0 -5 5 -10 11 -10 5 0 7 5 4 10 -3 6 -8 10 -11 10 -2 0
-4 -4 -4 -10z"/>
<path d="M150 1155 c-7 -8 -17 -12 -23 -8 -6 3 -7 1 -3 -5 5 -9 12 -8 26 1 11
6 20 15 20 19 0 12 -6 10 -20 -7z"/>
<path d="M2470 1140 c0 -5 5 -10 11 -10 5 0 7 5 4 10 -3 6 -8 10 -11 10 -2 0
-4 -4 -4 -10z"/>
<path d="M2439 1093 c-13 -15 -12 -15 9 -4 23 12 28 21 13 21 -5 0 -15 -7 -22
-17z"/>
<path d="M160 1050 c-12 -7 -12 -12 -2 -22 6 -6 12 -10 13 -7 0 2 2 12 4 22 4
20 4 19 -15 7z"/>
<path d="M140 1012 c16 -33 20 -62 9 -62 -5 0 -9 -5 -9 -11 0 -5 4 -8 9 -4 5
3 12 1 15 -4 4 -5 -2 -11 -11 -13 -15 -3 -15 -5 3 -10 19 -5 20 -2 17 36 -5
61 -6 66 -11 61 -3 -3 -11 3 -19 13 -13 15 -13 15 -3 -6z"/>
<path d="M130 880 c0 -5 5 -10 11 -10 5 0 7 5 4 10 -3 6 -8 10 -11 10 -2 0 -4
-4 -4 -10z"/>
<path d="M130 820 c0 -5 5 -10 11 -10 5 0 7 5 4 10 -3 6 -8 10 -11 10 -2 0 -4
-4 -4 -10z"/>
<path d="M2470 820 c0 -5 5 -10 11 -10 5 0 7 5 4 10 -3 6 -8 10 -11 10 -2 0
-4 -4 -4 -10z"/>
<path d="M2439 773 c-13 -15 -12 -15 9 -4 23 12 28 21 13 21 -5 0 -15 -7 -22
-17z"/>
<path d="M130 721 c0 -9 38 -12 44 -3 2 4 -7 8 -20 8 -13 1 -24 -1 -24 -5z"/>
<path d="M147 679 c-4 -13 -10 -18 -18 -13 -8 4 -10 3 -5 -4 5 -9 14 -7 31 4
14 9 22 20 19 25 -9 15 -21 10 -27 -12z"/>
<path d="M160 570 c-12 -7 -12 -12 -2 -22 6 -6 12 -10 13 -7 0 2 2 12 4 22 4
20 4 19 -15 7z"/>
<path d="M137 534 c5 -13 3 -15 -7 -9 -9 5 -11 4 -6 -3 4 -7 11 -12 17 -12 12
0 12 27 -1 35 -6 4 -7 -1 -3 -11z"/>
<path d="M163 520 c2 -8 -5 -20 -16 -26 -18 -10 -19 -11 -1 -18 10 -4 15 -4
11 0 -4 4 0 12 8 18 11 8 12 15 4 26 -9 13 -10 13 -6 0z"/>
<path d="M2470 500 c0 -5 5 -10 11 -10 5 0 7 5 4 10 -3 6 -8 10 -11 10 -2 0
-4 -4 -4 -10z"/>
<path d="M158 453 c7 -3 16 -2 19 1 4 3 -2 6 -13 5 -11 0 -14 -3 -6 -6z"/>
<path d="M2460 426 c0 -2 7 -7 16 -10 8 -3 12 -2 9 4 -6 10 -25 14 -25 6z"/>
<path d="M2450 361 c0 -11 4 -22 9 -25 4 -3 6 6 3 19 -5 30 -12 33 -12 6z"/>
<path d="M157 349 c7 -7 15 -10 18 -7 3 3 -2 9 -12 12 -14 6 -15 5 -6 -5z"/>
<path d="M375 330 c-14 -15 -21 -17 -32 -9 -9 9 -13 9 -13 0 0 -6 -5 -11 -11
-11 -5 0 -7 5 -3 12 4 7 3 8 -4 4 -6 -4 -9 -13 -5 -22 4 -11 9 -12 19 -3 11 9
17 9 28 0 11 -9 17 -8 29 3 19 19 31 8 14 -13 -10 -14 -10 -14 4 -4 9 7 19 10
22 6 4 -3 7 -2 7 3 0 5 9 10 20 11 11 1 18 -2 16 -6 -3 -4 2 -8 10 -8 10 0 11
4 4 11 -16 16 -12 30 5 16 16 -13 31 -8 22 8 -9 13 -82 8 -79 -6 3 -16 -6 -15
-23 2 -8 7 -11 16 -8 20 4 3 4 6 1 6 -3 0 -13 -9 -23 -20z m15 -4 c0 -2 -8
-10 -17 -17 -16 -13 -17 -12 -4 4 13 16 21 21 21 13z m70 -2 c0 -8 -19 -13
-24 -6 -3 5 1 9 9 9 8 0 15 -2 15 -3z"/>
<path d="M531 327 c-17 -17 7 -39 30 -26 14 7 19 6 19 -3 0 -9 3 -10 8 -2 11
17 95 14 110 -5 11 -14 11 -14 5 3 -4 13 -3 17 5 12 18 -11 70 -18 54 -8 -8 5
-14 13 -15 18 -1 5 -8 9 -15 10 -6 1 -10 -2 -7 -6 3 -5 -4 -8 -15 -7 -11 1
-20 5 -20 9 0 5 -9 4 -20 -2 -16 -8 -20 -8 -20 3 0 18 -48 16 -59 -2 -7 -11
-9 -11 -13 -1 -5 17 -33 21 -47 7z m39 -8 c0 -11 -29 -19 -34 -10 -3 5 -3 10
-1 13 8 7 35 5 35 -3z"/>
<path d="M1300 320 c-8 -15 -8 -25 0 -38 9 -14 10 -14 5 6 -7 23 12 28 27 7 5
-6 8 -5 8 3 0 7 5 10 10 7 6 -4 7 -12 3 -18 -5 -8 -2 -8 9 0 8 7 18 10 21 6 4
-3 7 -2 7 3 0 5 9 10 20 11 11 1 18 -2 16 -6 -3 -4 2 -8 10 -8 10 0 11 4 4 11
-16 16 -12 30 5 16 16 -13 31 -8 22 8 -9 13 -82 8 -79 -6 1 -7 -2 -12 -8 -12
-5 0 -10 6 -10 13 0 8 -3 7 -10 -3 -8 -12 -10 -12 -16 3 -6 17 -7 17 -21 0
-14 -17 -14 -17 -9 0 7 23 -1 22 -14 -3z m120 4 c0 -8 -19 -13 -24 -6 -3 5 1
9 9 9 8 0 15 -2 15 -3z"/>
<path d="M1491 327 c-17 -17 7 -39 30 -26 14 7 19 6 19 -3 0 -9 3 -10 8 -2 11
17 95 14 110 -5 11 -14 11 -14 5 3 -4 13 -3 17 5 12 18 -11 70 -18 54 -8 -8 5
-14 13 -15 18 -1 5 -8 9 -15 10 -6 1 -10 -2 -7 -6 3 -5 -4 -8 -15 -7 -11 1
-20 5 -20 9 0 5 -9 4 -20 -2 -16 -8 -20 -8 -20 3 0 18 -48 16 -59 -2 -7 -11
-9 -11 -13 -1 -5 17 -33 21 -47 7z m39 -8 c0 -11 -29 -19 -34 -10 -3 5 -3 10
-1 13 8 7 35 5 35 -3z"/>
<path d="M1267 324 c-3 -3 -3 -13 0 -21 5 -12 7 -12 14 -1 15 23 4 40 -14 22z"/>
<path d="M230 306 c0 -2 7 -7 16 -10 8 -3 12 -2 9 4 -6 10 -25 14 -25 6z"/>
<path d="M1030 306 c0 -2 7 -7 16 -10 8 -3 12 -2 9 4 -6 10 -25 14 -25 6z"/>
<path d="M1190 306 c0 -2 7 -7 16 -10 8 -3 12 -2 9 4 -6 10 -25 14 -25 6z"/>
<path d="M1990 306 c0 -2 7 -7 16 -10 8 -3 12 -2 9 4 -6 10 -25 14 -25 6z"/>
<path d="M2150 306 c0 -2 7 -7 16 -10 8 -3 12 -2 9 4 -6 10 -25 14 -25 6z"/>
<path d="M512 286 c7 -8 15 -12 17 -11 5 6 -10 25 -20 25 -5 0 -4 -6 3 -14z"/>
<path d="M972 291 c-11 -7 -11 -9 0 -14 9 -3 15 1 15 9 0 8 -1 14 -1 14 -1 0
-7 -4 -14 -9z"/>
<path d="M1472 286 c7 -8 15 -12 17 -11 5 6 -10 25 -20 25 -5 0 -4 -6 3 -14z"/>
<path d="M1932 291 c-11 -7 -11 -9 0 -14 9 -3 15 1 15 9 0 8 -1 14 -1 14 -1 0
-7 -4 -14 -9z"/>
<path d="M335 280 c3 -5 8 -10 11 -10 2 0 4 5 4 10 0 6 -5 10 -11 10 -5 0 -7
-4 -4 -10z"/>
<path d="M815 280 c3 -5 8 -10 11 -10 2 0 4 5 4 10 0 6 -5 10 -11 10 -5 0 -7
-4 -4 -10z"/>
<path d="M1775 280 c3 -5 8 -10 11 -10 2 0 4 5 4 10 0 6 -5 10 -11 10 -5 0 -7
-4 -4 -10z"/>
<path d="M2255 280 c3 -5 8 -10 11 -10 2 0 4 5 4 10 0 6 -5 10 -11 10 -5 0 -7
-4 -4 -10z"/>
</g>
</svg>
